HIERARCHY
ROOT Hips
{
	OFFSET -3.958830 18.904000 13.208200
	CHANNELS 6 Xposition Yposition Zposition Zrotation Yrotation Xrotation 
	JOINT LHipJoint
	{
		OFFSET 0.000000 0.000000 0.000000
		CHANNELS 3 Zrotation Yrotation Xrotation
		JOINT LeftUpLeg
		{
			OFFSET 1.800000 -1.400000 0.085000
			CHANNELS 3 Zrotation Yrotation Xrotation
			JOINT LeftLeg
			{
				OFFSET 2.215000 -6.000000 0.000000
				CHANNELS 3 Zrotation Yrotation Xrotation
				JOINT LeftFoot
				{
					OFFSET 2.500000 -6.900000 0.000000
					CHANNELS 3 Zrotation Yrotation Xrotation
					JOINT LeftToeBase
					{
						OFFSET 0.200000 -0.500000 1.950000
						CHANNELS 3 Zrotation Yrotation Xrotation
						End Site
						{
							OFFSET 0.000000 0.000000 0.000000
						}
					}
				}
			}
		}
	}
	JOINT RHipJoint
	{
		OFFSET 0.000000 0.000000 0.000000
		CHANNELS 3 Zrotation Yrotation Xrotation
		JOINT RightUpLeg
		{
			OFFSET -1.800000 -1.400000 0.085000
			CHANNELS 3 Zrotation Yrotation Xrotation
			JOINT RightLeg
			{
				OFFSET -2.215000 -6.000000 0.000000
				CHANNELS 3 Zrotation Yrotation Xrotation
				JOINT RightFoot
				{
					OFFSET -2.500000 -6.900000 0.000000
					CHANNELS 3 Zrotation Yrotation Xrotation
					JOINT RightToeBase
					{
						OFFSET -0.200000 -0.500000 1.950000
						CHANNELS 3 Zrotation Yrotation Xrotation
						End Site
						{
							OFFSET 0.000000 0.000000 0.000000
						}
					}
				}
			}
		}
	}
	JOINT LowerBack
	{
		OFFSET 0.000000 0.000000 0.000000
		CHANNELS 3 Zrotation Yrotation Xrotation
		JOINT Spine
		{
			OFFSET -0.087000 1.940000 -0.288900
			CHANNELS 3 Zrotation Yrotation Xrotation
			JOINT Spine1
			{
				OFFSET 0.000000 1.950000 0.060000
				CHANNELS 3 Zrotation Yrotation Xrotation
				JOINT Neck
				{
					OFFSET 0.000000 0.000000 0.000000
					CHANNELS 3 Zrotation Yrotation Xrotation
					JOINT Neck1
					{
						OFFSET 0.000000 1.600000 0.340000
						CHANNELS 3 Zrotation Yrotation Xrotation
						JOINT Head
						{
							OFFSET 0.000000 1.667000 -0.240000
							CHANNELS 3 Zrotation Yrotation Xrotation
							End Site
							{
								OFFSET 0.000000 0.000000 0.000000
							}
						}
					}
				}
				JOINT LeftShoulder
				{
					OFFSET 0.000000 0.000000 0.000000
					CHANNELS 3 Zrotation Yrotation Xrotation
					JOINT LeftArm
					{
						OFFSET 2.700000 1.550000 -0.730000
						CHANNELS 3 Zrotation Yrotation Xrotation
						JOINT LeftForeArm
						{
							OFFSET 5.450000 0.000000 0.000000
							CHANNELS 3 Zrotation Yrotation Xrotation
							JOINT LeftHand
							{
								OFFSET 3.450000 0.000000 0.000000
								CHANNELS 3 Zrotation Yrotation Xrotation
								JOINT LeftHandIndex1
								{
									OFFSET 0.750000 0.000000 0.000000
									CHANNELS 3 Zrotation Yrotation Xrotation
									End Site
									{
										OFFSET 0.000000 0.000000 0.000000
									}
								}
							}
						}
					}
				}
				JOINT RightShoulder
				{
					OFFSET 0.000000 0.000000 0.000000
					CHANNELS 3 Zrotation Yrotation Xrotation
					JOINT RightArm
					{
						OFFSET -2.700000 1.550000 -0.730000
						CHANNELS 3 Zrotation Yrotation Xrotation
						JOINT RightForeArm
						{
							OFFSET -5.450000 0.000000 0.000000
							CHANNELS 3 Zrotation Yrotation Xrotation
							JOINT RightHand
							{
								OFFSET -3.450000 0.000000 0.000000
								CHANNELS 3 Zrotation Yrotation Xrotation
								JOINT RightHandIndex1
								{
									OFFSET -0.750000 0.000000 0.000000
									CHANNELS 3 Zrotation Yrotation Xrotation
									End Site
									{
										OFFSET 0.000000 0.000000 0.000000
									}
								}
							}
						}
					}
				}
			}
		}
	}
}
MOTION
Frames: 13
Frame Time: 0.016667
0.556090 17.001330 -1.064430 -2.298900 11.364722 -2.753907 -15.663748 13.358999 3.695167 0.832893 1.981619 5.063900 -10.430230 4.754512 -4.578483 0.344058 4.979905 3.111447 0.009200 -0.152350 -0.044240 17.851657 -9.684931 3.227070 -4.062452 2.204448 -25.983728 5.591134 -1.966036 -0.741089 0.113156 -1.803004 3.787458 -0.068080 0.311200 0.195820 -2.452991 -3.279929 -8.493510 0.509552 -2.321410 12.429141 2.880087 -3.031169 2.994428 1.979846 0.667009 -14.099139 -2.366059 -0.683325 40.108082 -3.266680 0.026050 0.847230 -14.431836 -16.452390 5.473431 4.176008 -6.410936 -0.632567 9.101234 -7.852635 -0.463756 -4.106234 2.769937 0.186260 0.206010 -0.067990 0.141520 11.275602 16.128926 10.447670 -0.349467 0.817647 -1.468158 -10.732279 4.872795 -0.267290 2.590022 -1.203358 -0.120510 0.141190 0.104050 -0.036120 
0.556540 17.001580 -1.062810 -2.268789 11.354875 -2.756726 -15.665829 13.357647 3.696174 0.784502 1.996201 5.103527 -10.380179 4.746079 -4.606980 0.340608 4.979061 3.111249 0.011030 -0.151530 -0.042210 17.849778 -9.683173 3.228075 -4.123183 2.192201 -25.960421 5.670312 -1.972459 -0.779900 0.112093 -1.810336 3.786609 -0.066660 0.310290 0.195060 -2.447169 -3.279292 -8.494074 0.447611 -2.300305 12.436899 2.897257 -3.023766 2.990551 1.997427 0.690511 -14.110502 -2.313749 -0.690529 40.109829 -3.303160 0.054890 0.797150 -14.430502 -16.453565 5.482333 4.158211 -6.367115 -0.629004 9.130453 -7.853321 -0.466765 -4.106110 2.767859 0.188770 0.206120 -0.067980 0.141860 11.239632 16.128657 10.453676 -0.339256 0.831266 -1.458086 -10.678227 4.837293 -0.264059 2.588421 -1.201677 -0.122340 0.142190 0.103430 -0.038260 
0.556400 17.002410 -1.060560 -2.228859 11.317805 -2.769068 -15.667712 13.356838 3.696372 0.748805 2.010953 5.144288 -10.349724 4.747870 -4.592145 0.341357 4.976803 3.112242 0.013150 -0.150250 -0.037630 17.847183 -9.684365 3.230932 -4.171331 2.180930 -25.934606 5.722881 -1.973023 -0.836317 0.110980 -1.815625 3.786581 -0.066220 0.307170 0.193720 -2.440331 -3.272382 -8.496702 0.355800 -2.254009 12.470837 2.908513 -2.994561 2.973225 2.026840 0.743429 -14.160939 -2.205142 -0.726043 40.132398 -3.364860 0.097890 0.804900 -14.438627 -16.491578 5.514459 4.156442 -6.250347 -0.638057 9.186901 -7.897757 -0.466367 -4.104031 2.765937 0.189730 0.205520 -0.067040 0.141500 11.185267 16.158113 10.496292 -0.271574 0.789024 -1.440052 -10.629217 4.791983 -0.259429 2.589602 -1.201142 -0.122540 0.141270 0.100100 -0.040340 
0.556990 17.003130 -1.058070 -2.226168 11.266871 -2.769323 -15.668158 13.355373 3.697109 0.729987 2.020381 5.171312 -10.319146 4.745570 -4.602300 0.345941 4.972123 3.115280 0.012460 -0.149770 -0.036270 17.846173 -9.685272 3.235132 -4.165598 2.185102 -25.938363 5.737494 -1.966967 -0.881907 0.110697 -1.815666 3.787645 -0.067010 0.305080 0.191620 -2.437721 -3.263969 -8.501591 0.334242 -2.220538 12.497033 2.907696 -2.967097 2.948423 2.062283 0.780507 -14.226265 -2.125451 -0.773965 40.123888 -3.459650 0.135610 0.884210 -14.461172 -16.539951 5.559974 4.148584 -6.096308 -0.649658 9.244355 -7.923646 -0.461716 -4.101422 2.765671 0.187870 0.204900 -0.066130 0.142190 11.128863 16.211413 10.552612 -0.270373 0.708971 -1.410325 -10.501996 4.785021 -0.252318 2.592762 -1.200164 -0.122120 0.140410 0.096710 -0.039960 
0.558880 17.003720 -1.055730 -2.304564 11.224524 -2.789467 -15.664992 13.358904 3.696721 0.766369 2.012263 5.184882 -10.239025 4.741549 -4.590091 0.349768 4.967335 3.118627 0.013110 -0.150460 -0.034320 17.847692 -9.686514 3.241646 -4.100086 2.207449 -25.923843 5.751158 -1.961882 -0.910831 0.109336 -1.813078 3.789454 -0.069160 0.303410 0.192470 -2.444921 -3.262739 -8.510808 0.481701 -2.225867 12.554462 2.848638 -2.939283 2.900943 2.102556 0.765689 -14.292461 -2.156520 -0.804247 40.121484 -3.528050 0.127410 0.948680 -14.503416 -16.579880 5.592512 4.146811 -5.966583 -0.658736 9.282610 -7.945183 -0.459305 -4.098276 2.767464 0.187740 0.203560 -0.064110 0.144200 11.078666 16.284202 10.620845 -0.363629 0.567577 -1.369865 -10.251317 4.840830 -0.237583 2.594529 -1.197761 -0.120460 0.138640 0.093510 -0.039240 
0.560700 17.004220 -1.053410 -2.375119 11.167865 -2.801493 -15.661110 13.364379 3.696128 0.788136 2.004987 5.175921 -10.149722 4.739519 -4.550899 0.347277 4.961571 3.121151 0.009650 -0.156500 -0.035190 17.849169 -9.690330 3.248553 -4.024438 2.234778 -25.935037 5.743529 -1.960394 -0.904738 0.110963 -1.807592 3.792737 -0.072900 0.303010 0.191390 -2.453124 -3.260187 -8.520922 0.621612 -2.225788 12.616202 2.779484 -2.902015 2.834130 2.139202 0.755742 -14.379200 -2.183923 -0.817802 40.169629 -3.563800 0.116030 1.026740 -14.544735 -16.644173 5.643922 4.151767 -5.808930 -0.661830 9.305447 -7.909575 -0.458935 -4.097466 2.764224 0.190830 0.202640 -0.064590 0.143080 11.034131 16.377451 10.694262 -0.439449 0.455069 -1.343846 -10.044623 4.839268 -0.220121 2.595474 -1.192087 -0.122740 0.138170 0.094700 -0.040730 
0.561920 17.004920 -1.051220 -2.470042 11.090670 -2.796191 -15.656988 13.366794 3.693877 0.835256 1.985351 5.142086 -10.067103 4.734214 -4.519367 0.345311 4.955108 3.123710 0.005690 -0.163750 -0.036330 17.851485 -9.692748 3.257488 -3.922127 2.278279 -25.967997 5.757930 -1.958693 -0.895666 0.113425 -1.801781 3.795719 -0.077760 0.302680 0.191220 -2.462156 -3.253175 -8.529950 0.774536 -2.205290 12.650570 2.737811 -2.850020 2.794710 2.166715 0.751629 -14.472288 -2.195761 -0.846083 40.189504 -3.610520 0.101110 1.151330 -14.560394 -16.721084 5.704390 4.138793 -5.672512 -0.659886 9.311292 -7.848509 -0.457659 -4.097974 2.763199 0.192440 0.202320 -0.066170 0.141370 10.982021 16.479445 10.772944 -0.476382 0.358554 -1.332207 -9.947478 4.770045 -0.206959 2.598066 -1.189336 -0.123920 0.135740 0.096530 -0.042190 
0.563090 17.004310 -1.048370 -2.561618 11.010792 -2.754804 -15.651445 13.364402 3.686481 0.865210 1.966599 5.078512 -9.978171 4.730170 -4.463411 0.339571 4.949551 3.127968 -0.002880 -0.175000 -0.044020 17.856645 -9.694605 3.266972 -3.825721 2.327597 -26.034705 5.793778 -1.958936 -0.893299 0.119500 -1.800684 3.799950 -0.082750 0.309820 0.190830 -2.476785 -3.237605 -8.531382 0.936735 -2.192544 12.611359 2.684256 -2.809383 2.816508 2.174436 0.746726 -14.537044 -2.180154 -0.856532 40.071488 -3.649770 0.099310 1.343100 -14.544189 -16.785728 5.766833 4.125723 -5.529204 -0.649974 9.321710 -7.793695 -0.458218 -4.104125 2.761030 0.191320 0.207620 -0.072960 0.140750 10.931981 16.558973 10.820955 -0.500836 0.367074 -1.329713 -9.914859 4.605107 -0.199459 2.599369 -1.187492 -0.128460 0.136330 0.102180 -0.042520 
0.563100 17.003420 -1.044340 -2.617417 10.943549 -2.688581 -15.646726 13.359499 3.678908 0.894093 1.950092 5.008881 -9.949907 4.733230 -4.394634 0.340377 4.942493 3.132171 -0.009670 -0.182310 -0.050570 17.861275 -9.697297 3.275800 -3.737232 2.369040 -26.106132 5.788112 -1.950710 -0.917795 0.123551 -1.797060 3.802971 -0.087380 0.314150 0.191030 -2.489185 -3.217145 -8.531470 1.027139 -2.173027 12.527022 2.665488 -2.779229 2.834773 2.162588 0.742571 -14.604842 -2.169195 -0.878656 39.985969 -3.662520 0.081440 1.539020 -14.502349 -16.850011 5.841375 4.084279 -5.377310 -0.641399 9.320131 -7.753266 -0.452968 -4.106537 2.762461 0.187870 0.210480 -0.076440 0.141320 10.900397 16.635652 10.859192 -0.474676 0.426785 -1.341551 -9.997909 4.371625 -0.195259 2.606375 -1.188481 -0.129210 0.134900 0.104570 -0.040310 
0.562920 17.001900 -1.039560 -2.662343 10.890710 -2.585441 -15.642527 13.348680 3.671437 0.924450 1.930921 4.936058 -9.951849 4.730404 -4.375866 0.345699 4.935333 3.136800 -0.014700 -0.187630 -0.054830 17.866721 -9.696751 3.285174 -3.661603 2.409937 -26.192519 5.782157 -1.935318 -0.992980 0.126498 -1.794956 3.804382 -0.092090 0.316820 0.192880 -2.501594 -3.192026 -8.530421 1.109401 -2.150733 12.383157 2.647403 -2.752182 2.849760 2.152973 0.749248 -14.645131 -2.138071 -0.937646 39.860417 -3.744260 0.072730 1.770730 -14.490248 -16.902886 5.892467 4.104367 -5.265923 -0.634161 9.237199 -7.732513 -0.439087 -4.108018 2.767830 0.181530 0.213500 -0.079010 0.142390 10.894318 16.687153 10.887158 -0.510647 0.465249 -1.329542 -9.949760 4.115824 -0.186980 2.616008 -1.191215 -0.126900 0.130560 0.104490 -0.037260 
0.562360 16.999570 -1.033750 -2.676360 10.829520 -2.447545 -15.639365 13.332537 3.664487 0.929636 1.918068 4.870155 -9.973351 4.721516 -4.406980 0.353115 4.930720 3.142131 -0.021220 -0.194800 -0.062540 17.872433 -9.693482 3.293945 -3.627212 2.446185 -26.297103 5.817316 -1.922487 -1.082937 0.130818 -1.798168 3.805797 -0.097840 0.323500 0.195560 -2.512210 -3.163384 -8.526487 1.137527 -2.114425 12.171438 2.660586 -2.727022 2.884900 2.121165 0.741320 -14.678759 -2.128203 -0.976071 39.697129 -3.767960 0.040000 2.090740 -14.454446 -16.950049 5.946178 4.107113 -5.173589 -0.619725 9.132739 -7.696878 -0.424269 -4.111869 2.774455 0.172880 0.219340 -0.084540 0.144670 10.914747 16.735522 10.909468 -0.605578 0.497919 -1.310281 -9.838740 3.817487 -0.176866 2.625707 -1.194608 -0.124470 0.126000 0.105430 -0.032750 
0.561650 16.997970 -1.028610 -2.686176 10.770443 -2.341209 -15.635421 13.318259 3.661400 0.941230 1.911168 4.836631 -10.010328 4.713893 -4.460188 0.361110 4.928002 3.145361 -0.026950 -0.200120 -0.069440 17.877766 -9.691647 3.302219 -3.612866 2.473949 -26.376663 5.886277 -1.916583 -1.150221 0.132794 -1.800200 3.806819 -0.103430 0.328110 0.196780 -2.523997 -3.136992 -8.527836 1.178200 -2.083023 12.025400 2.630478 -2.689340 2.878209 2.094284 0.743328 -14.723646 -2.116736 -1.002712 39.644710 -3.722950 -0.010900 2.308560 -14.427682 -17.008547 5.991781 4.151645 -5.103042 -0.610202 9.012830 -7.648272 -0.409543 -4.113882 2.777562 0.167060 0.221880 -0.087380 0.146270 10.933089 16.788393 10.941497 -0.636390 0.531372 -1.292630 -9.729396 3.489900 -0.161342 2.636369 -1.193990 -0.121870 0.123660 0.106870 -0.028380 
0.560370 16.995920 -1.023760 -2.665836 10.697429 -2.235716 -15.634644 13.306958 3.657579 0.918524 1.908919 4.797044 -10.016266 4.704830 -4.494492 0.365099 4.923704 3.148411 -0.032260 -0.206080 -0.074740 17.880298 -9.688216 3.308964 -3.617772 2.494983 -26.448945 5.953405 -1.911448 -1.216060 0.135429 -1.803114 3.806809 -0.108010 0.332220 0.197520 -2.526789 -3.118988 -8.525789 1.142910 -2.021917 11.875935 2.674974 -2.645392 2.889950 2.062793 0.711383 -14.758081 -2.172805 -1.019637 39.583005 -3.698460 -0.067420 2.489850 -14.380441 -17.040771 6.022976 4.116433 -5.115303 -0.595434 8.935718 -7.544266 -0.401907 -4.117167 2.778691 0.162840 0.224200 -0.090650 0.146660 10.954658 16.845450 10.974453 -0.739921 0.544768 -1.273142 -9.564805 3.133433 -0.144796 2.647094 -1.191856 -0.121020 0.121780 0.108760 -0.025470 
